<?xml version="1.0" encoding="utf-8"?>
<svg viewBox="0 0 500 500"
    xmlns="http://www.w3.org/2000/svg">
    <path d="M 240.534 46.433 C 200.662 46.433 161.691 57.771 128.543 79.025 C 95.389 100.271 69.551 130.471 54.294 165.802 C 39.041 201.139 35.045 240.02 42.824 277.527 C 50.605 315.041 69.803 349.498 97.994 376.541 C 126.185 403.582 162.104 421.998 201.204 429.462 C 240.311 436.92 280.842 433.091 317.673 418.455 C 354.509 403.818 385.993 379.033 408.142 347.236 C 430.291 315.438 442.118 278.047 442.118 239.804 L 341.326 239.804 C 341.326 258.929 335.412 277.618 324.335 293.52 C 313.263 309.422 297.519 321.811 279.104 329.13 C 260.689 336.449 240.423 338.362 220.873 334.631 C 201.316 330.9 183.359 321.693 169.263 308.173 C 155.168 294.652 145.566 277.42 141.677 258.666 C 137.793 239.913 139.787 220.473 147.417 202.807 C 155.045 185.135 167.962 170.039 184.539 159.411 C 201.11 148.792 220.598 143.119 240.534 143.119 L 240.534 46.433 Z" fill="white" style="" transform="matrix(1, 0, 0, 1, 0, 7.105427357601002e-15)"/>
    <path d="M 240.534 46.433 C 214.059 46.433 187.847 51.435 163.389 61.155 C 138.933 70.87 116.71 85.116 97.994 103.07 C 79.276 121.025 64.427 142.342 54.294 165.802 C 44.167 189.264 38.951 214.409 38.951 239.804 L 139.743 239.804 C 139.743 227.109 142.348 214.538 147.417 202.807 C 152.48 191.077 159.902 180.417 169.263 171.437 C 178.62 162.457 189.73 155.337 201.959 150.481 C 214.188 145.622 227.294 143.119 240.534 143.119 L 240.534 46.433 Z" fill="#5CE1E6" style="" transform="matrix(1, 0, 0, 1, 0, 7.105427357601002e-15)"/>
    <circle cx="134.945" cy="246.359" r="11.271" fill="#5CE1E6" style="" transform="matrix(5.58896017074585, 0, 0, 5.361320972442627, -513.6665649414062, -1081.0042724609375)"/>
    <path d="M 303.527 239.804 C 303.527 231.87 301.896 224.011 298.732 216.681 C 295.569 209.348 290.924 202.689 285.078 197.075 C 279.227 191.462 272.286 187.012 264.64 183.978 C 256.999 180.937 248.807 179.378 240.534 179.378 C 232.262 179.378 224.07 180.937 216.424 183.978 C 208.783 187.012 201.836 191.462 195.99 197.075 C 190.139 202.689 185.5 209.348 182.337 216.681 C 179.167 224.011 177.54 231.87 177.54 239.804 L 240.534 239.804 L 303.527 239.804 Z" fill="white" style="" transform="matrix(1, 0, 0, 1, 0, 7.105427357601002e-15)"/>
</svg>